#!OML:ASF F:\VICON\USERDATA\INSTALL\rory3\rory3.ASF
:FULLY-SPECIFIED
:DEGREES
20
root 0.19402900000000056 18.1753 -16.240700000000068 -3.355299999999999 0.5131219999999986 -6.133010000000002
lfemur -20.311900000000005 0.9107820000000033 -13.06610000000001
ltibia 71.74529999999993
lfoot 0.12247699999999462 -9.722729999999999
ltoes -10.183500000000002
rfemur -9.003119999999996 4.617649999999999 33.12899999999999
rtibia 27.691000000000013
rfoot -12.172199999999991 -9.958909999999998
rtoes 11.712299999999988
lowerback -1.0 0.23949800000000002 2.676799999999999
upperback 0.5544640000000005 0.8373539999999996 2.9631800000000013
thorax -5.73161 0.3803199999999999 1.4657299999999998
lowerneck -15.722700000000001 -3.41388 -1.8148199999999999
upperneck 21.1149 -4.3679 0.33591700000000224
head 9.29123 -2.14739 -0.1311620000000006
lclavicle -2.68981e-15 5.963539999999991e-16
lhumerus -30.4725 6.8796 83.0882
lradius 26.0961
lwrist 9.434550000000003
lhand -26.930200000000003 20.6377
lfingers 7.12502
lthumb -0.3527209999999976 50.61709999999999
rclavicle -2.68981e-15 5.963539999999991e-16
rhumerus -30.3675 -23.525900000000004 -76.7626
rradius 22.490200000000005
rwrist 6.833779999999992
rhand -15.515999999999995 -1.0
rfingers 7.12502
rthumb 10.667100000000001 -12.172800000000008
21
root 0.3645246536286475 18.217848434605813 2.1392949104934313 -2.936814859410828 2.0769148434381344 -4.841304178503375
lfemur -20.285855677546717 1.4306389354051543 -14.05429277266937
ltibia 66.34727365387555
lfoot -5.062012350077856 -5.179985625762359
ltoes -8.822125126797598
rfemur -5.664279757879955 3.491652244562127 31.879832665298864
rtibia 27.910319066606142
rfoot -13.688336802278874 -8.449981874504333
rtoes 8.04776305708759
lowerback -1.0 0.2833170512734856 2.392325294029984
upperback 0.27085540995530843 1.0025101511677863 2.285259482566108
thorax -5.845570308436178 0.4641203848488984 0.3127455343395118
lowerneck -16.000439520375938 -3.3341542279022054 -1.7824283810886805
upperneck 21.383733787976908 -4.261503036247566 0.35369827501494666
head 9.330636163701865 -2.1612587633718863 -0.048203141777374
lclavicle 2.691251698112709e-15 -3.384689973768202e-17
lhumerus -32.82474284206639 4.490684710282376 83.09534045086622
lradius 27.13075867843092
lwrist 8.55362963676368
lhand -28.562490121389263 21.552134319251802
lfingers nan
lthumb -1.9492664850963584 51.33863068194714
rclavicle 2.6286482814761218e-15 -1.5910848653907336e-16
rhumerus -28.928253757373845 -19.14511418604559 -78.70528378262519
rradius 25.46236205071227
rwrist 3.894919753716882
rhand -17.549979388683358 -1.0
rfingers nan
rthumb 8.486069535472913 -7.858330715810386
22
root 0.4711080704669246 18.14828378969977 -0.3490578129217603 -2.6105495978407833 1.4704468524056988 -5.060089954204752
lfemur -21.69875057731985 1.507848301153972 -13.785424519266213
ltibia 60.34441259378475
lfoot -7.735246455855722 -1.1602351421201462
ltoes -7.129786509587857
rfemur -4.4330082360177645 3.4264232838777726 32.31150510121002
rtibia 29.19465574421982
rfoot -14.88348652898567 -7.339889203169219
rtoes 6.825899662591552
lowerback -1.0 0.5233301567339064 3.127864799699312
upperback -0.11209100368061953 1.4423847893794892 2.200080696006848
thorax -6.243865123956286 0.646940898693228 -0.31123267656943776
lowerneck -15.858868154246137 -3.331649820491421 -1.8578190295136763
upperneck 21.315585364068347 -4.3266049697499325 0.7524768457665927
head 9.342651084953898 -2.141972167493345 0.04823549888930656
lclavicle 1.5818639363647186e-15 2.785680561520415e-16
lhumerus -33.86060410720243 5.3963316938732815 82.9262572460304
lradius 27.40307484184552
lwrist 8.453944811993937
lhand -28.677138395638163 21.41540125824372
lfingers nan
lthumb -2.028934844548831 51.31150087577972
rclavicle 1.2567366587432316e-15 -2.6500879885156225e-17
rhumerus -27.79550708348229 -16.266134213216585 -79.66883261231246
rradius 28.19528640213469
rwrist 1.6328735930722247
rhand -18.134361984039295 -1.0
rfingers nan
rthumb 8.107482939636839 -5.666972887613023
23
root 0.5459673896361126 18.118414263767544 -1.1147082383635833 -2.13713010737426 0.660531575732778 -5.51295934156586
lfemur -23.782366635356638 0.9950076421362732 -13.16677659652768
ltibia 53.267347563928816
lfoot -8.76111812077997 2.9483021145821517
ltoes -5.543848681016037
rfemur -3.4769062225831036 3.8554446296970886 32.640180977054946
rtibia 30.509175637988566
rfoot -15.174355648805001 -6.8977416609281414
rtoes 7.259931131257943
lowerback -1.0 0.7101764300892991 3.911139143053197
upperback -0.2030975948289076 1.781643212003223 2.111075896072258
thorax -6.2778786215007845 0.8299657453061473 -0.7528903341747226
lowerneck -15.759870862338639 -3.404267405065891 -1.7666415065422214
upperneck 21.110509288377248 -4.458097926808143 0.7629924948446773
head 9.334346616624455 -2.1974270961028086 0.052848429084897286
lclavicle -2.882125559327677e-15 -9.490827028339127e-16
lhumerus -34.842024169884816 6.404698821088655 82.48878991141234
lradius 27.25381176474577
lwrist 7.645016358895092
lhand -29.070188785568707 21.228984130684836
lfingers nan
lthumb -2.4505175378303083 51.038549671130156
rclavicle -2.10766575741718e-15 -4.8559108584542595e-16
rhumerus -26.273022347539968 -14.215559977051871 -80.16311630951895
rradius 30.546010255096878
rwrist 0.12980651084399586
rhand -18.298556123711194 -1.0
rfingers nan
rthumb 7.956004544724059 -5.693496316690561
24
root 0.5970630489721058 18.06830036851389 -1.9428837573379152 -1.4568188387123377 -0.1828124444252417 -5.836466097427366
lfemur -25.105146641482236 -0.02194222313921923 -12.61358360280958
ltibia 43.842449778521946
lfoot -8.979038214378718 5.369471493483261
ltoes -4.507845038258279
rfemur -1.1942574164372601 3.9553560746460326 33.24189705790365
rtibia 30.065968084353074
rfoot -14.908506070866068 -6.835524106768965
rtoes 6.829182970641527
lowerback -1.0 1.0010069395810444 4.635261985133374
upperback -0.13468967257857925 2.2354823201012355 2.13007489778786
thorax -6.20427642073779 1.0379174680377503 -1.0850036596781958
lowerneck -15.62475456001976 -3.5480635967440497 -1.7324138213547593
upperneck 21.038856810249268 -4.711230615550505 0.7131457494950848
head 9.264378032610642 -2.3016522548580416 0.044340185181162534
lclavicle 3.047765833498437e-15 1.2867149373560797e-15
lhumerus -35.30509077887965 7.638008489958224 81.97648022224728
lradius 26.332769065907616
lwrist 7.065132033033795
lhand -29.09419135430133 20.678086549518962
lfingers nan
lthumb -2.397872085714196 50.68484116041779
rclavicle 2.935886555295835e-15 1.2122449488531582e-15
rhumerus -24.127269909598013 -12.981381066295722 -80.52431545473443
rradius 31.923743878131823
rwrist -0.5288645669168806
rhand -18.329461855547624 -1.0
rfingers nan
rthumb 7.809271220353992 -6.127759146858486
25
root 0.6397007994042175 18.0639647207006 -2.136674757252898 -0.8146878669593747 -0.5782517690241441 -6.234039606924597
lfemur -25.75098899619559 -2.0273112852946387 -11.749445973846129
ltibia 34.421922621945406
lfoot -10.071838197918764 5.734222007472899
ltoes -4.406236115875295
rfemur 2.054576215591643 4.104568957752495 33.75729659945326
rtibia 27.512617764582366
rfoot -14.830015091275104 -7.283795850435827
rtoes 5.643339603808959
lowerback -1.0 1.1555111712638815 5.234990306722056
upperback -0.1644575834219746 2.5776698618698353 2.1789056048310216
thorax -6.2835061128476 1.2177217907889992 -1.2340489644215749
lowerneck -15.612607571299275 -3.6812391111180283 -1.5598972067634649
upperneck 21.03591659903463 -5.066089413942867 0.7749324539381374
head 9.247124375486262 -2.404637456197425 -0.01960626058725823
lclavicle -1.7612442122197327e-15 -1.6005126203752475e-16
lhumerus -35.76569581760204 8.385640563393268 81.45616181807934
lradius 25.306803551679785
lwrist 6.155948118266629
lhand -29.336777477617613 19.956012637835943
lfingers nan
lthumb -2.5743250540530345 50.21213603594775
rclavicle -2.2037788346953888e-15 -4.614386292320332e-16
rhumerus -22.757308533716397 -12.346468358977887 -80.61056466725789
rradius 32.69525647095989
rwrist -0.7425954275650111
rhand -18.620923487865547 -1.0
rfingers nan
rthumb 7.5871979365035624 -6.548068974863285
26
root 0.6839295016646696 18.01082441558209 -1.834743010001528 -0.30507374724906544 -0.936118240511241 -6.3509549965754175
lfemur -24.90992867674835 -4.359489100884969 -10.917484825105127
ltibia 24.945736945422098
lfoot -10.749153120411677 6.2307419862691615
ltoes -4.4899000241108915
rfemur 5.598128107417486 4.156276623645111 33.69775271443249
rtibia 24.6935058612883
rfoot -15.229190823996529 -7.709128981187411
rtoes 3.540103261423039
lowerback -1.0 1.3378533385552003 5.42024401848783
upperback -0.19238773880588927 2.743161948673807 2.108703522183918
thorax -6.256198188906452 1.28359971425807 -1.4660264925825321
lowerneck -15.75739627974626 -3.800560005197115 -1.4747696207403744
upperneck 21.22308817738688 -5.410343767373772 1.086576095773448
head 9.331413642664943 -2.4904515029661853 -0.021005058096260854
lclavicle -2.98635433753368e-16 -3.071296329969384e-16
lhumerus -35.8082467730988 8.986930018957429 81.25851403538316
lradius 24.478494250477542
lwrist 5.979930187199024
lhand -29.448478162947485 19.527306805721807
lfingers nan
lthumb -2.7525949274131816 49.64284280229183
rclavicle -1.0439246757153953e-16 -1.3112771995048625e-16
rhumerus -21.807934867124253 -11.980947126729943 -80.5270895152045
rradius 33.21955779217909
rwrist -0.7950912914300905
rhand -18.623305226812462 -1.0
rfingers nan
rthumb 7.518217407741498 -7.26851032242796
27
root 0.7313533375486035 18.002306066057056 -1.1955675995873154 -0.1887561936404789 -0.9998751991687638 -6.223034584504422
lfemur -23.93251623938018 -5.550479643719049 -11.058269069079149
ltibia 17.80018006354875
lfoot -11.688453746918936 5.46370648123897
ltoes -5.42154955417452
rfemur 7.086735378228687 4.150853570796507 33.23274118098048
rtibia 25.2529990313137
rfoot -15.429246117363586 -7.296197223518361
rtoes 0.5823715392461308
lowerback -1.0 1.397313083471659 5.261824363734152
upperback -0.30277851637527126 2.8983520608844815 2.0183114052902136
thorax -6.245340581342175 1.3695356936007776 -1.553916004131277
lowerneck -15.986404954043827 -3.666403377632895 -1.4804643428139843
upperneck 21.274455657598647 -5.202620256269565 1.1297588534373777
head 9.407863522975234 -2.3971183054964738 -0.013905547131107032
lclavicle 2.8029475803701816e-15 1.0337268604798944e-15
lhumerus -36.217726274740905 9.670091257768343 80.72408807658745
lradius 23.732208120092096
lwrist 5.9621912865439075
lhand -29.343732515791256 19.266852359114196
lfingers nan
lthumb -2.693386592035567 49.36293803476737
rclavicle 2.514370839495554e-15 8.698192796084244e-16
rhumerus -21.202648348600807 -12.159014992276223 -80.50243824345185
rradius 33.780342992680275
rwrist -0.867339544613031
rhand -18.73691086292981 -1.0
rfingers nan
rthumb 7.4729071714511175 -7.317479821479765
